<?xml version="1.0" encoding="UTF-8"?>
<!DOCTYPE svg PUBLIC "-//W3C//DTD SVG 1.1//EN" "http://www.w3.org/Graphics/SVG/1.1/DTD/svg11.dtd">
<svg xmlns="http://www.w3.org/2000/svg" version="1.1" width="288px" height="288px" style="shape-rendering:geometricPrecision; text-rendering:geometricPrecision; image-rendering:optimizeQuality; fill-rule:evenodd; clip-rule:evenodd" xmlns:xlink="http://www.w3.org/1999/xlink">
<g><path style="opacity:1" fill="#fefefe" d="M -0.5,-0.5 C 95.5,-0.5 191.5,-0.5 287.5,-0.5C 287.5,95.5 287.5,191.5 287.5,287.5C 191.5,287.5 95.5,287.5 -0.5,287.5C -0.5,191.5 -0.5,95.5 -0.5,-0.5 Z"/></g>
<g><path style="opacity:1" fill="#aae5fe" d="M 142.5,66.5 C 151.746,74.2412 160.579,82.5745 169,91.5C 169.667,92.1667 169.667,92.8333 169,93.5C 166.246,96.7621 163.079,99.4288 159.5,101.5C 153.913,97.4185 148.746,92.7518 144,87.5C 131.986,99.3473 120.152,111.347 108.5,123.5C 120.152,135.653 131.986,147.653 144,159.5C 148.988,154.346 154.155,149.346 159.5,144.5C 162.818,147.317 165.985,150.317 169,153.5C 169.749,154.635 169.583,155.635 168.5,156.5C 160.139,164.696 151.639,172.696 143,180.5C 124.008,161.675 105.175,142.675 86.5,123.5C 105.188,104.479 123.855,85.4792 142.5,66.5 Z"/></g>
<g><path style="opacity:1" fill="#aae5fe" d="M 173.5,97.5 C 183.092,105.423 192.092,114.09 200.5,123.5C 192.167,132.5 183.5,141.167 174.5,149.5C 171.5,146.167 168.5,142.833 165.5,139.5C 170.188,134.595 174.688,129.595 179,124.5C 178.702,121.207 176.869,119.707 173.5,120C 164.376,130.291 154.71,140.124 144.5,149.5C 135.5,141.167 126.833,132.5 118.5,123.5C 126.5,114.833 134.833,106.5 143.5,98.5C 147.167,101.5 150.5,104.833 153.5,108.5C 149.455,113.379 144.955,117.713 140,121.5C 139.91,124.462 141.243,126.796 144,128.5C 154.424,118.58 164.257,108.246 173.5,97.5 Z"/></g>
<g><path style="opacity:1" fill="#deb3ff" d="M 107.5,187.5 C 108.675,187.281 109.675,187.614 110.5,188.5C 112,192.167 113.5,195.833 115,199.5C 117.002,195.658 118.502,191.658 119.5,187.5C 120.5,187.5 121.5,187.5 122.5,187.5C 122.827,192.544 122.494,197.544 121.5,202.5C 120.676,199.215 120.176,195.882 120,192.5C 118.519,195.956 116.852,199.289 115,202.5C 112.953,199.036 111.287,195.37 110,191.5C 109.825,195.211 109.325,198.878 108.5,202.5C 107.506,197.544 107.173,192.544 107.5,187.5 Z"/></g>
<g><path style="opacity:1" fill="#dfb6ff" d="M 195.5,187.5 C 198.572,187.183 201.572,187.516 204.5,188.5C 202.257,189.474 199.924,189.808 197.5,189.5C 197.5,191.167 197.5,192.833 197.5,194.5C 205.5,194.833 205.5,195.167 197.5,195.5C 197.5,197.5 197.5,199.5 197.5,201.5C 199.857,201.337 202.19,201.503 204.5,202C 201.518,202.498 198.518,202.665 195.5,202.5C 195.5,197.5 195.5,192.5 195.5,187.5 Z"/></g>
<g><path style="opacity:1" fill="#ddb1ff" d="M 133.5,187.5 C 140.693,186.024 143.36,188.691 141.5,195.5C 139.591,196.348 137.591,196.682 135.5,196.5C 135.799,198.604 135.466,200.604 134.5,202.5C 133.506,197.544 133.173,192.544 133.5,187.5 Z"/></g>
<g><path style="opacity:1" fill="#fcfafe" d="M 135.5,189.5 C 141.209,188.678 142.543,190.511 139.5,195C 138.207,195.49 136.873,195.657 135.5,195.5C 135.5,193.5 135.5,191.5 135.5,189.5 Z"/></g>
<g><path style="opacity:1" fill="#deb3fe" d="M 174.5,187.5 C 178.555,187.176 182.555,187.509 186.5,188.5C 184.955,189.452 183.288,189.785 181.5,189.5C 180.833,206.833 180.167,206.833 179.5,189.5C 177.219,189.923 175.552,189.256 174.5,187.5 Z"/></g>
<g><path style="opacity:1" fill="#ddb1ff" d="M 86.5,187.5 C 94.775,186.706 97.9417,190.373 96,198.5C 95.5348,199.931 94.7014,201.097 93.5,202C 84.7212,203.888 81.2212,200.388 83,191.5C 84.3756,190.295 85.5423,188.962 86.5,187.5 Z"/></g>
<g><path style="opacity:1" fill="#fdfcff" d="M 86.5,189.5 C 93.5027,188.673 96.0027,191.673 94,198.5C 91.1816,202.424 88.1816,202.424 85,198.5C 84.068,195.177 84.568,192.177 86.5,189.5 Z"/></g>
<g><path style="opacity:1" fill="#deb3ff" d="M 214.5,187.5 C 216.857,187.337 219.19,187.503 221.5,188C 225.34,190.602 225.34,193.436 221.5,196.5C 223.441,198.316 224.108,200.316 223.5,202.5C 222.248,200.999 221.248,199.332 220.5,197.5C 219.311,196.571 217.978,196.238 216.5,196.5C 216.799,198.604 216.466,200.604 215.5,202.5C 214.506,197.544 214.173,192.544 214.5,187.5 Z"/></g>
<g><path style="opacity:1" fill="#fefdff" d="M 216.5,189.5 C 218.199,189.34 219.866,189.506 221.5,190C 222.833,191.333 222.833,192.667 221.5,194C 219.866,194.494 218.199,194.66 216.5,194.5C 216.5,192.833 216.5,191.167 216.5,189.5 Z"/></g>
<g><path style="opacity:1" fill="#dbabff" d="M 65.5,187.5 C 67.924,187.192 70.2573,187.526 72.5,188.5C 65.2125,188.083 62.3792,191.416 64,198.5C 66.2283,200.968 69.0617,202.135 72.5,202C 69.8333,202.667 67.1667,202.667 64.5,202C 61.5751,196.85 61.9084,192.017 65.5,187.5 Z"/></g>
<g><path style="opacity:1" fill="#ddb2ff" d="M 153.5,187.5 C 155.275,191.386 156.108,195.72 156,200.5C 158.592,201.982 160.925,201.648 163,199.5C 163.173,195.459 163.673,191.459 164.5,187.5C 165.659,191.122 165.825,194.789 165,198.5C 162.947,202.292 159.781,203.458 155.5,202C 155,201.5 154.5,201 154,200.5C 153.501,196.179 153.334,191.846 153.5,187.5 Z"/></g>
<g><path style="opacity:1" fill="#deb2ff" d="M 138.5,210.5 C 144.167,210.664 144.5,210.997 139.5,211.5C 139.5,212.5 139.5,213.5 139.5,214.5C 143.5,214.833 143.5,215.167 139.5,215.5C 139.5,216.5 139.5,217.5 139.5,218.5C 144.5,219.003 144.167,219.336 138.5,219.5C 138.5,216.5 138.5,213.5 138.5,210.5 Z"/></g>
<g><path style="opacity:1" fill="#e8cdff" d="M 158.5,216.5 C 159.165,214.631 159.831,212.631 160.5,210.5C 161.833,213.5 161.833,216.5 160.5,219.5C 159.081,218.995 158.415,217.995 158.5,216.5 Z"/></g>
<g><path style="opacity:1" fill="#dcacff" d="M 109.5,217.5 C 108.126,215.483 108.293,213.483 110,211.5C 109.865,213.425 109.698,215.425 109.5,217.5 Z"/></g>
<g><path style="opacity:1" fill="#e2bcff" d="M 92.5,211.5 C 93.4812,213.309 94.9812,214.643 97,215.5C 97.6667,216.5 97.6667,217.5 97,218.5C 96.3333,216.5 95,215.167 93,214.5C 92.5172,213.552 92.3505,212.552 92.5,211.5 Z"/></g>
<g><path style="opacity:1" fill="#ead0ff" d="M 158.5,216.5 C 157.542,216.047 156.708,215.381 156,214.5C 155.798,216.256 155.298,217.922 154.5,219.5C 153.167,216.5 153.167,213.5 154.5,210.5C 156.337,212.176 157.67,214.176 158.5,216.5 Z"/></g>
<g><path style="opacity:1" fill="#ddb1fe" d="M 189.5,210.5 C 195.167,210.664 195.5,210.997 190.5,211.5C 190.5,212.5 190.5,213.5 190.5,214.5C 195.833,214.833 195.833,215.167 190.5,215.5C 190.5,216.5 190.5,217.5 190.5,218.5C 195.5,219.003 195.167,219.336 189.5,219.5C 189.5,216.5 189.5,213.5 189.5,210.5 Z"/></g>
<g><path style="opacity:1" fill="#dfb3ff" d="M 109.5,217.5 C 111.086,218.148 112.753,218.648 114.5,219C 113.667,219.167 112.833,219.333 112,219.5C 110.624,219.316 109.791,218.649 109.5,217.5 Z"/></g>
<g><path style="opacity:1" fill="#e2bdff" d="M 173.5,210.5 C 179.208,210.492 179.541,210.992 174.5,212C 172.365,216.35 173.699,218.683 178.5,219C 171.891,219.294 170.224,216.461 173.5,210.5 Z"/></g>
</svg>
